<?xml version="1.0" encoding="utf-8"?><svg viewBox="0 0 32 32" xmlns="http://www.w3.org/2000/svg" xmlns:xlink="http://www.w3.org/1999/xlink"><style>:root>svg{display:none}:root>svg:target{display:block}</style><svg viewBox="0 0 26 24" id="basket"><path d="M.82 1.663C-.273 1.663-.273 0 .82 0h6.512c.408 0 .748.296.818.684l.939 4.021H24.57c.561.011.966.543.79 1.088l-2.73 8.377a.832.832 0 01-.805.626h-10.38l.377 1.612h11.28c1.094 0 1.094 1.662 0 1.662H11.165a.832.832 0 01-.81-.643L6.675 1.662H.82zm12.885 17.666a2.34 2.34 0 012.335 2.336A2.341 2.341 0 0113.705 24a2.337 2.337 0 01-2.335-2.335 2.34 2.34 0 012.335-2.336zm6.698 0a2.335 2.335 0 110 4.67 2.335 2.335 0 010-4.67z"/></svg><svg viewBox="0 0 14 14" id="close"><path d="M13.744.256a.867.867 0 00-1.23 0L7 5.769 1.486.256a.867.867 0 00-1.23 0 .867.867 0 000 1.23L5.77 7 .256 12.512a.867.867 0 000 1.23.875.875 0 00.612.258.848.848 0 00.612-.258L6.994 8.23l5.513 5.513a.876.876 0 00.612.258.838.838 0 00.612-.258.867.867 0 000-1.23L8.231 7l5.513-5.513a.867.867 0 000-1.23z"/></svg><svg viewBox="0 0 32 32" id="user"><path d="M16 16a7 7 0 10-7-7 7 7 0 007 7zm0-12a5 5 0 11-5 5 5 5 0 015-5zM17 18h-2A11 11 0 004 29a1 1 0 001 1h22a1 1 0 001-1 11 11 0 00-11-11zM6.06 28A9 9 0 0115 20h2a9 9 0 018.94 8z"/></svg></svg>