<svg width="129" height="24" fill="none" xmlns="http://www.w3.org/2000/svg"><path d="M31.082.013a11.84 11.84 0 0 0-7.93 3.023 13.586 13.586 0 0 1 2.458 4.392 7.151 7.151 0 0 1 10.433-.668 7.207 7.207 0 0 1 2.264 5.246c0 1.988-.82 3.887-2.264 5.246a7.15 7.15 0 0 1-10.433-.668 6.994 6.994 0 0 1-.848-1.308 7.102 7.102 0 0 1-.86-3.27 11.827 11.827 0 0 0-2.386-7.181 7.318 7.318 0 0 0-.786-.95 11.02 11.02 0 0 0-.848-.84A11.924 11.924 0 0 0 11.476.023a11.932 11.932 0 0 0-8.142 3.674A12.017 12.017 0 0 0 0 12.006c0 3.099 1.195 6.077 3.334 8.31a11.93 11.93 0 0 0 8.142 3.675 11.923 11.923 0 0 0 8.406-3.014 13.583 13.583 0 0 1-2.46-4.393 7.151 7.151 0 0 1-10.433.668 7.206 7.206 0 0 1-2.262-5.246c0-1.987.819-3.886 2.263-5.246a7.15 7.15 0 0 1 10.433.668c.33.403.615.842.848 1.308a7.1 7.1 0 0 1 .86 3.27 11.828 11.828 0 0 0 2.386 7.182c.235.338.498.656.787.95.27.284.553.58.848.839a11.918 11.918 0 0 0 10.78 2.661 11.964 11.964 0 0 0 8.31-7.39 12.032 12.032 0 0 0-1.335-11.062A11.937 11.937 0 0 0 31.081 0v.013Z" fill="#C60024"/><path d="M46.428 18v-2.224l.371-.032c.477-.039.863-.22 1.157-.544.294-.328.513-.85.658-1.566.15-.72.245-1.687.288-2.902l.217-5.823h8.885V18h-2.69V7.127h-3.625l-.205 4.558c-.068 1.466-.242 2.663-.524 3.592-.277.929-.72 1.615-1.33 2.058-.604.443-1.433.665-2.486.665h-.716Zm18.243.192c-.993 0-1.851-.211-2.576-.633a4.33 4.33 0 0 1-1.668-1.777c-.392-.763-.588-1.647-.588-2.653 0-1.014.196-1.9.588-2.659a4.28 4.28 0 0 1 1.668-1.777c.725-.426 1.583-.639 2.576-.639.993 0 1.85.213 2.57.64a4.267 4.267 0 0 1 1.674 1.776c.392.759.589 1.645.589 2.66 0 1.005-.197 1.89-.589 2.652a4.318 4.318 0 0 1-1.674 1.777c-.72.422-1.577.633-2.57.633Zm.013-2.11c.452 0 .829-.128 1.131-.383.303-.26.53-.614.684-1.061.158-.448.237-.957.237-1.528 0-.57-.079-1.08-.237-1.528-.153-.447-.381-.8-.684-1.06-.302-.26-.68-.39-1.131-.39-.456 0-.84.13-1.15.39-.307.26-.54.613-.697 1.06-.154.448-.23.957-.23 1.528 0 .571.076 1.08.23 1.528.157.447.39.8.696 1.06.311.256.695.384 1.15.384Zm12.394-1.093 2.66-6.807h2.07L77.98 18h-1.808l-3.74-9.818h2.065l2.582 6.807Zm-3.202-6.807V18h-2.602V8.182h2.602ZM80.415 18V8.182h2.57V18h-2.57ZM93.253 4.577l.831 1.777c-.277.23-.584.4-.92.511-.337.107-.74.177-1.208.211-.465.034-1.032.058-1.7.07-.76.009-1.377.13-1.854.365a2.34 2.34 0 0 0-1.087 1.105c-.247.5-.41 1.151-.486 1.956h.096c.294-.6.707-1.065 1.24-1.393.537-.328 1.2-.492 1.988-.492.835 0 1.566.183 2.192.55a3.74 3.74 0 0 1 1.47 1.578c.35.686.525 1.509.525 2.468 0 .997-.196 1.864-.588 2.601a4.148 4.148 0 0 1-1.656 1.707c-.716.4-1.568.6-2.557.6-.993 0-1.849-.208-2.57-.626-.715-.417-1.27-1.033-1.661-1.847-.388-.814-.582-1.815-.582-3.004v-.806c0-2.365.46-4.118 1.38-5.26.921-1.142 2.274-1.722 4.06-1.739.486-.008.925-.01 1.317-.006a6.73 6.73 0 0 0 1.029-.058c.298-.042.545-.132.741-.268Zm-3.7 11.505c.417 0 .775-.108 1.073-.326.303-.217.535-.528.697-.933.166-.405.25-.888.25-1.45 0-.56-.084-1.032-.25-1.42-.162-.392-.394-.69-.697-.895-.303-.204-.665-.307-1.087-.307a2.02 2.02 0 0 0-.85.173 1.74 1.74 0 0 0-.645.511 2.45 2.45 0 0 0-.41.825c-.093.324-.14.694-.14 1.112 0 .84.181 1.502.543 1.988.367.482.872.722 1.515.722Zm9.394 2.103c-.627 0-1.185-.108-1.675-.326a2.697 2.697 0 0 1-1.163-.978c-.281-.434-.422-.976-.422-1.623 0-.546.1-1.004.3-1.374.2-.371.473-.67.819-.895a3.967 3.967 0 0 1 1.176-.512 8.952 8.952 0 0 1 1.393-.243 35.57 35.57 0 0 0 1.381-.166c.349-.055.603-.136.761-.243a.535.535 0 0 0 .236-.473v-.038c0-.405-.128-.718-.384-.94-.251-.221-.609-.332-1.073-.332-.49 0-.88.109-1.17.326a1.5 1.5 0 0 0-.575.805l-2.519-.204c.128-.597.38-1.112.754-1.547a3.62 3.62 0 0 1 1.451-1.01c.597-.239 1.287-.358 2.071-.358.546 0 1.068.064 1.566.192a4.1 4.1 0 0 1 1.336.594c.392.269.701.614.927 1.036.226.417.339.918.339 1.502V18h-2.582v-1.361h-.077a2.781 2.781 0 0 1-.633.811c-.264.23-.582.412-.952.544-.371.127-.8.191-1.285.191Zm.78-1.879a2.3 2.3 0 0 0 1.061-.236 1.88 1.88 0 0 0 .722-.652 1.68 1.68 0 0 0 .262-.927v-1.042a1.453 1.453 0 0 1-.351.153 6.349 6.349 0 0 1-.493.122c-.183.034-.366.066-.549.096l-.499.07c-.32.047-.599.121-.837.224a1.34 1.34 0 0 0-.556.415c-.132.17-.198.384-.198.64 0 .37.134.653.402.85.273.191.618.287 1.036.287Zm6.862 5.376v-13.5h2.684V9.83h.122c.119-.264.292-.533.517-.805.231-.277.529-.508.895-.69.371-.188.831-.282 1.381-.282.716 0 1.376.187 1.982.562.605.371 1.088.932 1.451 1.682.362.745.543 1.68.543 2.806 0 1.095-.177 2.02-.531 2.774-.349.75-.826 1.319-1.431 1.706a3.678 3.678 0 0 1-2.02.576c-.529 0-.978-.088-1.349-.262a2.777 2.777 0 0 1-.901-.659 3.308 3.308 0 0 1-.537-.811h-.083v5.254h-2.723Zm2.665-8.591c0 .584.081 1.093.243 1.528.162.434.396.773.703 1.016.307.239.68.358 1.119.358.443 0 .818-.122 1.125-.364.307-.248.539-.588.696-1.023.162-.44.243-.944.243-1.515 0-.567-.078-1.065-.236-1.496-.158-.43-.39-.767-.697-1.01-.307-.243-.684-.364-1.131-.364-.443 0-.818.117-1.125.351-.303.235-.535.567-.697.998-.162.43-.243.937-.243 1.52Zm7.958 7.785V15.84h.754c.218-.136.392-.353.525-.652.136-.298.247-.65.332-1.054.089-.405.158-.842.205-1.31.051-.474.095-.95.134-1.432l.255-3.21h7.53v7.659h1.522v5.036h-2.596V18h-6.002v2.876h-2.659Zm3.465-5.037h3.701v-5.56h-2.647l-.102 1.112a23.907 23.907 0 0 1-.313 2.671c-.136.73-.35 1.322-.639 1.777Z" fill="#000"/></svg>